<svg xmlns="http://www.w3.org/2000/svg" viewBox="0 0 100 100" width="100" height="100">
  <defs>
    <linearGradient id="fg" x1="0%" y1="0%" x2="100%" y2="100%">
      <stop offset="0%" style="stop-color:#0d4a63"/>
      <stop offset="100%" style="stop-color:#2E86AB"/>
    </linearGradient>
  </defs>
  <rect width="100" height="100" rx="22" fill="url(#fg)"/>
  <circle cx="50" cy="30" r="12" fill="white" opacity="0.95"/>
  <line x1="50" y1="12" x2="50" y2="6" stroke="white" stroke-width="3" stroke-linecap="round" opacity="0.8"/>
  <line x1="66" y1="17" x2="70" y2="13" stroke="white" stroke-width="3" stroke-linecap="round" opacity="0.8"/>
  <line x1="34" y1="17" x2="30" y2="13" stroke="white" stroke-width="3" stroke-linecap="round" opacity="0.8"/>
  <line x1="72" y1="30" x2="78" y2="30" stroke="white" stroke-width="3" stroke-linecap="round" opacity="0.8"/>
  <line x1="28" y1="30" x2="22" y2="30" stroke="white" stroke-width="3" stroke-linecap="round" opacity="0.8"/>
  <path d="M12,62 C20,50 28,50 36,62 C44,74 52,74 60,62 C68,50 76,50 84,62 C88,68 90,70 88,66" fill="none" stroke="white" stroke-width="4.5" stroke-linecap="round"/>
  <path d="M14,78 C22,68 30,68 38,78 C46,88 54,88 62,78 C70,68 78,68 86,78" fill="none" stroke="white" stroke-width="3" stroke-linecap="round" opacity="0.5"/>
</svg>
