<svg xmlns="http://www.w3.org/2000/svg" viewBox="0 0 560 140" width="560" height="140">
  <defs>
    <linearGradient id="blueGrad" x1="0%" y1="0%" x2="100%" y2="100%">
      <stop offset="0%" style="stop-color:#0d4a63"/>
      <stop offset="100%" style="stop-color:#2E86AB"/>
    </linearGradient>
  </defs>

  <!-- Fond blanc -->
  <rect width="560" height="140" rx="12" fill="white"/>

  <!-- Icône cercle -->
  <g transform="translate(18, 20)">
    <circle cx="50" cy="50" r="50" fill="url(#blueGrad)"/>
    <!-- Soleil -->
    <circle cx="50" cy="22" r="9" fill="white" opacity="0.95"/>
    <line x1="50" y1="7" x2="50" y2="3" stroke="white" stroke-width="2.5" stroke-linecap="round" opacity="0.75"/>
    <line x1="63" y1="11" x2="66" y2="8" stroke="white" stroke-width="2.5" stroke-linecap="round" opacity="0.75"/>
    <line x1="37" y1="11" x2="34" y2="8" stroke="white" stroke-width="2.5" stroke-linecap="round" opacity="0.75"/>
    <line x1="68" y1="22" x2="72" y2="22" stroke="white" stroke-width="2.5" stroke-linecap="round" opacity="0.75"/>
    <line x1="32" y1="22" x2="28" y2="22" stroke="white" stroke-width="2.5" stroke-linecap="round" opacity="0.75"/>
    <!-- Vague 1 -->
    <path d="M8,58 C15,48 22,48 29,58 C36,68 43,68 50,58 C57,48 64,48 71,58 C76,65 78,67 82,62" fill="none" stroke="white" stroke-width="3.2" stroke-linecap="round"/>
    <!-- Vague 2 -->
    <path d="M10,74 C17,65 24,65 31,74 C38,83 45,83 52,74 C59,65 66,65 73,74 C76,78 78,80 82,76" fill="none" stroke="white" stroke-width="2.2" stroke-linecap="round" opacity="0.5"/>
  </g>

  <!-- Texte -->
  <g transform="translate(142, 32)">
    <!-- AZUR STAY -->
    <text x="0" y="42" font-family="Georgia, 'Times New Roman', serif" font-size="44" font-weight="700" fill="#0d4a63" letter-spacing="2">AZUR</text>
    <text x="124" y="42" font-family="Georgia, 'Times New Roman', serif" font-size="44" font-weight="400" fill="#2E86AB" letter-spacing="2">STAY</text>
    <!-- Ligne dorée -->
    <line x1="0" y1="52" x2="390" y2="52" stroke="#c9a84c" stroke-width="0.8" opacity="0.7"/>
    <!-- SAÏDIA -->
    <text x="2" y="74" font-family="'Helvetica Neue', Arial, sans-serif" font-size="14" font-weight="400" fill="#c9a84c" letter-spacing="11">SAÏDIA</text>
    <!-- Tagline -->
    <text x="2" y="96" font-family="'Helvetica Neue', Arial, sans-serif" font-size="10" font-weight="300" fill="#94a3b8" letter-spacing="3">LOCATION  ·  CONCIERGERIE  ·  MAROC</text>
  </g>
</svg>
